<svg width="32" height="32" viewBox="0 0 32 32" fill="none" xmlns="http://www.w3.org/2000/svg">
<path fill-rule="evenodd" clip-rule="evenodd" d="M15 14H10C8.89543 14 8 13.1046 8 12V4C7.99958 3.46696 8.21196 2.9558 8.59 2.58C9.01275 2.28739 9.49372 2.08955 10 2H15V4H10V12H15V14ZM4 6H6V14H4V6ZM4 2H6V4H4V2ZM27.45 19.11L21.45 16.11C21.167 15.9674 20.833 15.9674 20.55 16.11L14.55 19.11C14.2137 19.2795 14.0011 19.6234 14 20V27C14.0011 27.3766 14.2137 27.7206 14.55 27.89L20.55 30.89C20.833 31.0326 21.167 31.0326 21.45 30.89L27.45 27.89C27.7863 27.7206 27.9989 27.3766 28 27V20C27.9989 19.6234 27.7863 19.2795 27.45 19.11ZM21 18.11L24.76 20L21 21.88L17.24 20L21 18.11ZM16 21.61L20 23.61V28.37L16 26.37V21.61ZM22 28.37V23.62L26 21.62V26.38L22 28.37ZM23 2H19C17.8954 2 17 2.89543 17 4V14H19V10H23V14H25V4C25 2.89543 24.1046 2 23 2ZM19 8V4H23V8H19Z" fill="black"/>
</svg>
